<?xml version="1.0" encoding="UTF-8"?><svg version="1.1" width="24px" height="24px" viewBox="0 0 24.0 24.0" xmlns="http://www.w3.org/2000/svg" xmlns:xlink="http://www.w3.org/1999/xlink"><defs><clipPath id="i0"><path d="M549,0 L549,728 L0,728 L0,0 L549,0 Z"></path></clipPath><clipPath id="i1"><path d="M16.5006962,9.4584039 L16.5,13 L1.5,13 L1.50029469,9.4585702 C1.66280605,9.48581775 1.82974681,9.5 2,9.5 C2.17059924,9.5 2.33787255,9.48576004 2.50069618,9.4584039 L2.5,12 L15.5,12 L15.5002947,9.4585702 C15.6628061,9.48581775 15.8297468,9.5 16,9.5 C16.1705992,9.5 16.3378726,9.48576004 16.5006962,9.4584039 Z M8.6401844,3.23177872 L11.362,5.499 L14.2681881,5.4989225 C14.5906726,4.94224374 15.1738636,4.55542366 15.8507377,4.50548574 L16,4.5 C17.1045695,4.5 18,5.3954305 18,6.5 C18,7.6045695 17.1045695,8.5 16,8.5 C15.2597476,8.5 14.6134261,8.09783388 14.2676063,7.50007248 L11.363,7.499 L8.6401844,9.76822128 C8.2159075,10.1217854 7.5853428,10.0644613 7.23177872,9.6401844 C6.87821464,9.2159075 6.9355387,8.5853428 7.3598156,8.23177872 L8.237,7.499 L3.73239368,7.50007248 C3.38657394,8.09783388 2.74025244,8.5 2,8.5 C0.8954305,8.5 0,7.6045695 0,6.5 C0,5.3954305 0.8954305,4.5 2,4.5 C2.7398375,4.5 3.38584934,4.90171539 3.73181186,5.4989225 L8.237,5.499 L7.3598156,4.76822128 C6.96817539,4.44185444 6.88920504,3.87946339 7.15746088,3.46116759 L7.23177872,3.3598156 C7.5853428,2.9355387 8.2159075,2.87821464 8.6401844,3.23177872 Z M16.5,0 L16.5006962,3.5415961 C16.3378726,3.51423996 16.1705992,3.5 16,3.5 C15.8297468,3.5 15.6628061,3.51418225 15.5002947,3.5414298 L15.5,1 L2.5,1 L2.50069618,3.5415961 C2.33787255,3.51423996 2.17059924,3.5 2,3.5 C1.82974681,3.5 1.66280605,3.51418225 1.50029469,3.5414298 L1.5,0 L16.5,0 Z"></path></clipPath></defs><g transform="translate(-240.0 -251.0)"><g clip-path="url(#i0)"><g transform="translate(240.0 251.0)"><g transform="translate(3.0 5.5)"><g clip-path="url(#i1)"><polygon points="0,0 18,0 18,13 0,13 0,0" stroke="none" fill="#333333"></polygon></g></g></g></g></g></svg>