<?xml version="1.0" encoding="UTF-8"?><svg version="1.1" width="24px" height="24px" viewBox="0 0 24.0 24.0" xmlns="http://www.w3.org/2000/svg" xmlns:xlink="http://www.w3.org/1999/xlink"><defs><clipPath id="i0"><path d="M549,0 L549,728 L0,728 L0,0 L549,0 Z"></path></clipPath><clipPath id="i1"><path d="M2,12 C3.1045695,12 4,12.8954305 4,14 C4,15.1045695 3.1045695,16 2,16 C0.8954305,16 0,15.1045695 0,14 C0,12.8954305 0.8954305,12 2,12 Z M16,12 C17.1045695,12 18,12.8954305 18,14 C18,15.1045695 17.1045695,16 16,16 C14.8954305,16 14,15.1045695 14,14 C14,12.8954305 14.8954305,12 16,12 Z M8.6401844,4.73177872 L11.363,7 L14.2676063,6.99992752 C14.5899708,6.44270935 15.1734563,6.05545371 15.8507377,6.00548574 L16,6 C17.1045695,6 18,6.8954305 18,8 C18,9.1045695 17.1045695,10 16,10 C15.2601625,10 14.6141507,9.59828461 14.2681881,9.0010775 L11.362,9 L8.6401844,11.2682213 C8.2159075,11.6217854 7.5853428,11.5644613 7.23177872,11.1401844 C6.87821464,10.7159075 6.9355387,10.0853428 7.3598156,9.73177872 L8.236,9 L3.73181186,9.0010775 C3.40932745,9.55775626 2.82613645,9.94457634 2.14926234,9.99451426 L2,10 C0.8954305,10 0,9.1045695 0,8 C0,6.8954305 0.8954305,6 2,6 C2.74025244,6 3.38657394,6.40216612 3.73239368,6.99992752 L8.238,7 L7.3598156,6.26822128 C6.96817539,5.94185444 6.88920504,5.37946339 7.15746088,4.96116759 L7.23177872,4.8598156 C7.5853428,4.4355387 8.2159075,4.37821464 8.6401844,4.73177872 Z M2,0 C3.1045695,0 4,0.8954305 4,2 C4,3.1045695 3.1045695,4 2,4 C0.8954305,4 0,3.1045695 0,2 C0,0.8954305 0.8954305,0 2,0 Z M16,0 C17.1045695,0 18,0.8954305 18,2 C18,3.1045695 17.1045695,4 16,4 C14.8954305,4 14,3.1045695 14,2 C14,0.8954305 14.8954305,0 16,0 Z"></path></clipPath></defs><g transform="translate(-240.0 -211.0)"><g clip-path="url(#i0)"><g transform="translate(240.0 211.0)"><g transform="translate(3.0 4.0)"><g clip-path="url(#i1)"><polygon points="0,0 18,0 18,16 0,16 0,0" stroke="none" fill="#333333"></polygon></g></g><g transform="translate(5.0 17.5)"><path d="M0,0.5 L14,0.5" stroke="#333333" stroke-width="1" fill="none" stroke-miterlimit="10"></path></g><g transform="translate(5.0 5.5)"><path d="M0,0.5 L14,0.5" stroke="#333333" stroke-width="1" fill="none" stroke-miterlimit="10"></path></g></g></g></g></svg>