<?xml version="1.0" encoding="UTF-8"?><svg version="1.1" width="24px" height="24px" viewBox="0 0 24.0 24.0" xmlns="http://www.w3.org/2000/svg" xmlns:xlink="http://www.w3.org/1999/xlink"><defs><clipPath id="i0"><path d="M549,0 L549,728 L0,728 L0,0 L549,0 Z"></path></clipPath><clipPath id="i1"><path d="M8.9602766,5.34766808 L11.544,7.49996239 L14.6765283,7.50049403 C14.994277,7.21983342 15.4019119,7.03859888 15.8507377,7.00548574 L16,7 C17.1045695,7 18,7.8954305 18,9 C18,10.1045695 17.1045695,11 16,11 C15.4930006,11 15.0300632,10.8113483 14.6775547,10.500412 L11.542,10.4999624 L8.9602766,12.6523319 C8.32386125,13.182678 7.3780142,13.0966919 6.84766808,12.4602766 C6.36484191,11.8808852 6.39284725,11.0450291 6.88195631,10.499714 L3.32244531,10.500412 C2.96993678,10.8113483 2.50699937,11 2,11 C0.8954305,11 0,10.1045695 0,9 C0,7.8954305 0.8954305,7 2,7 C2.5074916,7 2.97083565,7.18901815 3.32347172,7.50049403 L6.88284827,7.50127961 C6.42649789,6.99339897 6.37060943,6.23288249 6.75543474,5.66250045 L6.84766808,5.5397234 C7.3780142,4.90330805 8.32386125,4.81732196 8.9602766,5.34766808 Z M7.61588936,6.17992034 L7.56454092,6.25412182 C7.4477418,6.46041165 7.49134029,6.72698359 7.6799078,6.88412318 L9.617,8.499 L2.86614288,8.49988303 C2.69321974,8.20105377 2.37008772,8.00001254 2,8.00001254 C1.44771525,8.00001254 1,8.44772779 1,9.00001254 C1,9.55229729 1.44771525,10.0000125 2,10.0000125 L2.11662113,9.99328481 C2.43687411,9.95608792 2.71097715,9.76758261 2.86557226,9.50112684 L9.617,9.501 L7.6799078,11.1159019 C7.46776935,11.2926839 7.43910732,11.6079663 7.61588936,11.8201047 C7.7926714,12.0322432 8.10795375,12.0609052 8.3200922,11.8841232 L11.18,9.501 L15.1344277,9.50112684 C15.3074905,9.79941291 15.630319,10.0000125 16,10.0000125 C16.5522847,10.0000125 17,9.55229729 17,9.00001254 C17,8.44772779 16.5522847,8.00001254 16,8.00001254 C15.6299123,8.00001254 15.3067803,8.20105377 15.1338571,8.49988303 L11.181,8.499 L8.3200922,6.1159019 C8.10795375,5.93911986 7.7926714,5.96778189 7.61588936,6.17992034 Z M18,0 L18,3 L12.5,3 C12.2238576,3 12,2.77614237 12,2.5 C12,2.22385763 12.2238576,2 12.5,2 L17,2 L17,1 L0.5,1 C0.254540111,1 0.0503916296,0.823124839 0.00805566941,0.589875632 L0,0.5 C0,0.223857625 0.223857625,0 0.5,0 L18,0 Z M4.5,2 C4.77614237,2 5,2.22385763 5,2.5 C5,2.77614237 4.77614237,3 4.5,3 L0.5,3 C0.223857625,3 0,2.77614237 0,2.5 C0,2.22385763 0.223857625,2 0.5,2 L4.5,2 Z M10.5,2 C10.7761424,2 11,2.22385763 11,2.5 C11,2.77614237 10.7761424,3 10.5,3 L6.5,3 C6.22385763,3 6,2.77614237 6,2.5 C6,2.22385763 6.22385763,2 6.5,2 L10.5,2 Z"></path></clipPath></defs><g transform="translate(-240.0 -291.0)"><g clip-path="url(#i0)"><g transform="translate(240.0 291.0)"><g transform="translate(3.0 5.999999999999953)"><g clip-path="url(#i1)"><polygon points="0,0 18,0 18,13.0000376 0,13.0000376 0,0" stroke="none" fill="#333333"></polygon></g></g></g></g></g></svg>