<?xml version="1.0" encoding="UTF-8"?>
<svg width="24px" height="24px" viewBox="0 0 24 24" version="1.1" xmlns="http://www.w3.org/2000/svg" xmlns:xlink="http://www.w3.org/1999/xlink">
    <g id="页面-1" stroke="none" stroke-width="1" fill="none" fill-rule="evenodd">
        <g id="切图" transform="translate(-162.000000, -77.000000)" fill="#333333" fill-rule="nonzero">
            <g id="线备份-32" transform="translate(162.000000, 77.000000)">
                <path d="M18,10 C19.1045695,10 20,10.8954305 20,12 C20,13.1045695 19.1045695,14 18,14 C17.2597476,14 16.6134261,13.5978339 16.2676063,13.0000725 L13.1630549,13.0009575 C13.3945161,12.732257 13.5344485,12.38247 13.5344485,12 C13.5344485,11.6170447 13.3941608,11.2668553 13.1621733,10.9980199 L16.2681881,10.9989225 C16.6141507,10.4017154 17.2601625,10 18,10 Z M6,10 C6.7398375,10 7.38584934,10.4017154 7.73181186,10.9989225 L10.8378267,10.9980199 C10.6058392,11.2668553 10.4655515,11.6170447 10.4655515,12 C10.4655515,12.38247 10.6054839,12.732257 10.8369451,13.0009575 L7.73239368,13.0000725 C7.38657394,13.5978339 6.74025244,14 6,14 C4.8954305,14 4,13.1045695 4,12 C4,10.8954305 4.8954305,10 6,10 Z" id="形状结合"></path>
            </g>
        </g>
    </g>
</svg>